<svg width="1052" height="1052" viewBox="0 0 1052 1052" fill="none" xmlns="http://www.w3.org/2000/svg">
<path d="M274.556 374.099C264.479 368.221 264.479 353.662 274.556 347.784L487.809 223.386C511.523 209.553 540.847 209.553 564.561 223.386L777.815 347.784C787.891 353.662 787.891 368.221 777.815 374.099L549.211 507.451C534.982 515.751 517.388 515.751 503.16 507.451L274.556 374.099Z" fill="url(#paint0_linear_6520_25216)"/>
<path d="M533.186 558.364C533.186 542.111 541.818 527.081 555.857 518.892L784.463 385.539C794.618 379.615 807.371 386.94 807.371 398.696L807.371 648.313C807.371 675.402 792.983 700.451 769.584 714.101L579.001 825.274C558.691 837.121 533.186 822.472 533.186 798.959V558.364Z" fill="url(#paint1_linear_6520_25216)"/>
<path d="M244 398.696C244 386.94 256.753 379.615 266.908 385.539L495.513 518.892C509.552 527.081 518.185 542.111 518.185 558.364L518.185 798.959C518.185 822.472 492.679 837.122 472.37 825.274L281.787 714.101C258.388 700.452 244 675.401 244 648.313L244 398.696Z" fill="url(#paint2_linear_6520_25216)"/>
<rect x="40.5" y="40.5" width="971" height="971" rx="485.5" stroke="url(#paint3_linear_6520_25216)" stroke-width="81"/>
<defs>
<linearGradient id="paint0_linear_6520_25216" x1="526.185" y1="201" x2="443.5" y2="468.496" gradientUnits="userSpaceOnUse">
<stop stop-color="#44D9DB"/>
<stop offset="1" stop-color="#551FBF"/>
</linearGradient>
<linearGradient id="paint1_linear_6520_25216" x1="670.278" y1="372.176" x2="670.278" y2="852" gradientUnits="userSpaceOnUse">
<stop stop-color="#CD38E4"/>
<stop offset="1" stop-color="#1E067F"/>
</linearGradient>
<linearGradient id="paint2_linear_6520_25216" x1="381.093" y1="372.176" x2="381.093" y2="852" gradientUnits="userSpaceOnUse">
<stop stop-color="#6D61FF"/>
<stop offset="1" stop-color="#40209B"/>
</linearGradient>
<linearGradient id="paint3_linear_6520_25216" x1="526" y1="0" x2="526" y2="1052" gradientUnits="userSpaceOnUse">
<stop stop-color="#24CAA4"/>
<stop offset="1" stop-color="#24A2CA"/>
</linearGradient>
</defs>
</svg>
